<mxfile host="app.diagrams.net" modified="2023-12-18T23:38:46.257Z" agent="Mozilla/5.0 (Macintosh; Intel Mac OS X 10_15_7) AppleWebKit/537.36 (KHTML, like Gecko) Chrome/120.0.0.0 Safari/537.36" etag="Fz95blm7smnUdxPZOyRY" version="22.1.11" type="device">
  <diagram name="Page-1" id="fmUbj85oui5jkqOJb9Qk">
    <mxGraphModel dx="1127" dy="2366" grid="1" gridSize="10" guides="1" tooltips="1" connect="1" arrows="1" fold="1" page="1" pageScale="1" pageWidth="850" pageHeight="1100" math="0" shadow="0">
      <root>
        <mxCell id="0" />
        <mxCell id="1" parent="0" />
        <mxCell id="9AutItBFP17Fh7JO7_JK-1" value="&lt;span style=&quot;font-size: 33px;&quot;&gt;Feature&lt;/span&gt;" style="rounded=1;whiteSpace=wrap;html=1;" vertex="1" parent="1">
          <mxGeometry x="260" y="50" width="230" height="170" as="geometry" />
        </mxCell>
        <mxCell id="9AutItBFP17Fh7JO7_JK-6" style="edgeStyle=orthogonalEdgeStyle;rounded=0;orthogonalLoop=1;jettySize=auto;html=1;entryX=0.25;entryY=1;entryDx=0;entryDy=0;" edge="1" parent="1" source="9AutItBFP17Fh7JO7_JK-2" target="9AutItBFP17Fh7JO7_JK-1">
          <mxGeometry relative="1" as="geometry" />
        </mxCell>
        <mxCell id="9AutItBFP17Fh7JO7_JK-2" value="&lt;span style=&quot;font-size: 33px;&quot;&gt;Data Source&lt;/span&gt;" style="rounded=1;whiteSpace=wrap;html=1;" vertex="1" parent="1">
          <mxGeometry x="50" y="340" width="230" height="170" as="geometry" />
        </mxCell>
        <mxCell id="9AutItBFP17Fh7JO7_JK-5" style="edgeStyle=orthogonalEdgeStyle;rounded=0;orthogonalLoop=1;jettySize=auto;html=1;entryX=0.75;entryY=1;entryDx=0;entryDy=0;" edge="1" parent="1" source="9AutItBFP17Fh7JO7_JK-3" target="9AutItBFP17Fh7JO7_JK-1">
          <mxGeometry relative="1" as="geometry" />
        </mxCell>
        <mxCell id="9AutItBFP17Fh7JO7_JK-9" style="edgeStyle=orthogonalEdgeStyle;rounded=0;orthogonalLoop=1;jettySize=auto;html=1;" edge="1" parent="1" source="9AutItBFP17Fh7JO7_JK-3" target="9AutItBFP17Fh7JO7_JK-8">
          <mxGeometry relative="1" as="geometry" />
        </mxCell>
        <mxCell id="9AutItBFP17Fh7JO7_JK-3" value="&lt;span style=&quot;font-size: 33px;&quot;&gt;ViewModel&lt;/span&gt;" style="rounded=1;whiteSpace=wrap;html=1;" vertex="1" parent="1">
          <mxGeometry x="490" y="340" width="230" height="170" as="geometry" />
        </mxCell>
        <mxCell id="9AutItBFP17Fh7JO7_JK-8" value="&lt;span style=&quot;font-size: 33px;&quot;&gt;View&lt;/span&gt;" style="rounded=1;whiteSpace=wrap;html=1;" vertex="1" parent="1">
          <mxGeometry x="490" y="620" width="230" height="170" as="geometry" />
        </mxCell>
        <mxCell id="9AutItBFP17Fh7JO7_JK-10" value="&lt;font style=&quot;font-size: 30px;&quot;&gt;Baseline TCA Module&lt;/font&gt;" style="text;html=1;strokeColor=none;fillColor=none;align=center;verticalAlign=middle;whiteSpace=wrap;rounded=0;" vertex="1" parent="1">
          <mxGeometry x="210" y="-20" width="315" height="30" as="geometry" />
        </mxCell>
      </root>
    </mxGraphModel>
  </diagram>
</mxfile>
